<svg width="158" height="58" viewBox="0 0 158 58" fill="none" xmlns="http://www.w3.org/2000/svg">
<path d="M3.87891 25.2285H6.69141L12.1934 40.5215L17.6426 25.2285H20.4199L13.9336 43H10.4355L3.87891 25.2285ZM24.4629 18.6367H28.0664V22.0117H24.4629V18.6367ZM24.9199 25.2285H27.6094V43H24.9199V25.2285ZM41.1797 43.4043C39.1875 43.4043 37.5938 43.0938 36.3984 42.4727C35.2148 41.8398 34.3477 40.8438 33.7969 39.4844C33.2578 38.125 32.9883 36.3145 32.9883 34.0527C32.9883 31.8145 33.2637 30.0215 33.8145 28.6738C34.3652 27.3262 35.2324 26.3477 36.416 25.7383C37.6113 25.1172 39.2051 24.8066 41.1973 24.8066C43.5176 24.8066 45.2402 25.2871 46.3652 26.248C47.502 27.1973 48.0879 28.668 48.123 30.6602H45.3633C45.293 29.7695 45.1055 29.0605 44.8008 28.5332C44.5078 28.0059 44.0625 27.6191 43.4648 27.373C42.8672 27.127 42.0879 27.0039 41.127 27.0039C39.7324 27.0039 38.6484 27.2207 37.875 27.6543C37.1133 28.0879 36.5625 28.8145 36.2227 29.834C35.8945 30.8418 35.7305 32.2598 35.7305 34.0879C35.7305 36.0684 35.8828 37.5625 36.1875 38.5703C36.4922 39.5781 37.0312 40.2871 37.8047 40.6973C38.5781 41.0957 39.7148 41.2949 41.2148 41.2949C42.1992 41.2949 42.9902 41.1719 43.5879 40.9258C44.1855 40.668 44.625 40.2695 44.9062 39.7305C45.1875 39.1797 45.3398 38.4531 45.3633 37.5508H48.123C48.1113 38.9688 47.8711 40.1055 47.4023 40.9609C46.9336 41.8047 46.1953 42.4258 45.1875 42.8242C44.1797 43.2109 42.8438 43.4043 41.1797 43.4043ZM59.2676 43.4043C57.2871 43.4043 55.6992 43.0938 54.5039 42.4727C53.3203 41.8516 52.4531 40.8672 51.9023 39.5195C51.3633 38.1602 51.0938 36.3555 51.0938 34.1055C51.0938 31.8555 51.3633 30.0566 51.9023 28.709C52.4531 27.3613 53.3203 26.377 54.5039 25.7559C55.6992 25.1348 57.2871 24.8242 59.2676 24.8242C61.2715 24.8242 62.8711 25.1348 64.0664 25.7559C65.2617 26.3652 66.1348 27.3438 66.6855 28.6914C67.2363 30.0273 67.5117 31.8145 67.5117 34.0527C67.5117 36.3145 67.2363 38.125 66.6855 39.4844C66.1348 40.8438 65.2617 41.8398 64.0664 42.4727C62.8711 43.0938 61.2715 43.4043 59.2676 43.4043ZM59.373 41.207C60.7676 41.207 61.8457 40.9902 62.6074 40.5566C63.3809 40.123 63.9316 39.4023 64.2598 38.3945C64.5879 37.3867 64.752 35.9688 64.752 34.1406C64.752 32.3008 64.582 30.877 64.2422 29.8691C63.9023 28.8496 63.3398 28.123 62.5547 27.6895C61.7812 27.2441 60.6855 27.0215 59.2676 27.0215C57.873 27.0215 56.7891 27.2441 56.0156 27.6895C55.2422 28.123 54.6855 28.8555 54.3457 29.8867C54.0176 30.9062 53.8535 32.3359 53.8535 34.1758C53.8535 35.9922 54.0234 37.4043 54.3633 38.4121C54.7031 39.4082 55.2656 40.123 56.0508 40.5566C56.8359 40.9902 57.9434 41.207 59.373 41.207ZM78.0234 43.4043C76.3008 43.4043 74.9238 43.0996 73.8926 42.4902C72.8613 41.8809 72.1055 40.9141 71.625 39.5898C71.1562 38.2539 70.9219 36.4785 70.9219 34.2637C70.9219 31.8379 71.1387 29.9512 71.5723 28.6035C72.0176 27.2559 72.75 26.2949 73.7695 25.7207C74.7891 25.1348 76.2188 24.8418 78.0586 24.8418C79.5586 24.8418 80.7539 25.0176 81.6445 25.3691C82.5352 25.709 83.2793 26.2832 83.877 27.0918V17.6699H86.584V43H84.4219L84.1055 40.6445C83.5781 41.4766 82.8633 42.1445 81.9609 42.6484C81.0586 43.1523 79.7461 43.4043 78.0234 43.4043ZM78.6387 41.207C79.9863 41.207 81.0352 40.9902 81.7852 40.5566C82.5352 40.123 83.0684 39.4023 83.3848 38.3945C83.7129 37.375 83.877 35.9512 83.877 34.123C83.877 32.1777 83.7305 30.707 83.4375 29.7109C83.1445 28.7148 82.6348 28.0176 81.9082 27.6191C81.1816 27.2207 80.1094 27.0215 78.6914 27.0215C77.3086 27.0215 76.2656 27.2266 75.5625 27.6367C74.8594 28.0469 74.3672 28.7617 74.0859 29.7812C73.8047 30.8008 73.6641 32.3066 73.6641 34.2988C73.6641 36.0801 73.8164 37.4688 74.1211 38.4648C74.4258 39.4492 74.9355 40.1523 75.6504 40.5742C76.3652 40.9961 77.3613 41.207 78.6387 41.207ZM99.5039 43.4043C97.5703 43.4043 96.0234 43.0938 94.8633 42.4727C93.7031 41.8516 92.8535 40.8672 92.3145 39.5195C91.7871 38.1719 91.5234 36.373 91.5234 34.123C91.5234 32.0137 91.7871 30.2793 92.3145 28.9199C92.8418 27.5488 93.6855 26.5234 94.8457 25.8438C96.0059 25.1641 97.5352 24.8242 99.4336 24.8242C101.25 24.8242 102.703 25.0938 103.793 25.6328C104.895 26.1719 105.697 27.0273 106.201 28.1992C106.705 29.3594 106.957 30.9121 106.957 32.8574L106.939 34.5625H94.2656C94.2656 36.1914 94.4414 37.498 94.793 38.4824C95.1562 39.4551 95.7188 40.1699 96.4805 40.627C97.2539 41.0723 98.2852 41.2949 99.5742 41.2949C100.617 41.2949 101.455 41.1895 102.088 40.9785C102.732 40.7676 103.207 40.4336 103.512 39.9766C103.828 39.5078 104.004 38.8867 104.039 38.1133H106.799C106.799 39.918 106.201 41.2539 105.006 42.1211C103.822 42.9766 101.988 43.4043 99.5039 43.4043ZM104.197 32.5586C104.232 31.2109 104.092 30.1328 103.775 29.3242C103.459 28.5156 102.943 27.9238 102.229 27.5488C101.514 27.1738 100.559 26.9863 99.3633 26.9863C98.1094 26.9863 97.125 27.1562 96.4102 27.4961C95.707 27.8359 95.1914 28.4043 94.8633 29.2012C94.5352 29.998 94.3477 31.1172 94.3008 32.5586H104.197ZM111.703 25.2285H114.146L114.252 27.9883C115.037 26.9102 115.881 26.1133 116.783 25.5977C117.686 25.082 118.723 24.8242 119.895 24.8242H120.229V27.5137H119.842C118.482 27.5137 117.311 27.7773 116.326 28.3047C115.342 28.832 114.668 29.6406 114.305 30.7305V43H111.703V25.2285Z" fill="#9400FF" fill-opacity="0.61"/>
<path d="M130.479 39.616C130.479 41.032 130.155 42.004 129.507 42.532C128.859 43.06 127.899 43.324 126.627 43.324C125.379 43.324 124.431 43.06 123.783 42.532C123.135 42.004 122.811 41.032 122.811 39.616C122.811 38.2 123.135 37.264 123.783 36.808C124.455 36.328 125.415 36.088 126.663 36.088C127.911 36.088 128.859 36.328 129.507 36.808C130.155 37.264 130.479 38.2 130.479 39.616Z" fill="white" fill-opacity="0.79"/>
<path d="M151.25 48.22H133.43C132.782 48.22 132.458 47.608 132.458 46.384C132.458 45.52 132.626 44.8 132.962 44.224C133.322 43.648 133.754 43.36 134.258 43.36H151.79C151.982 43.36 152.138 43.396 152.258 43.468C152.57 43.66 152.726 44.212 152.726 45.124C152.726 46.036 152.582 46.78 152.294 47.356C152.03 47.932 151.682 48.22 151.25 48.22Z" fill="#9400FF" fill-opacity="0.69"/>
</svg>
